<?xml version="1.0" encoding="utf-8"?>
<!-- Generator: Adobe Illustrator 27.2.0, SVG Export Plug-In . SVG Version: 6.00 Build 0)  -->
<svg version="1.1" id="Layer_1" xmlns="http://www.w3.org/2000/svg" xmlns:xlink="http://www.w3.org/1999/xlink" x="0px" y="0px"
	 viewBox="0 0 1140 380" style="enable-background:new 0 0 1140 380;" xml:space="preserve">
<style type="text/css">
	.st0{fill:#FFFFFF;}
</style>
<g>
	<polygon class="st0" points="1120,130 1120,130 1080,90 	"/>
	<polygon class="st0" points="760,130 760,130 800,90 	"/>
	<path class="st0" d="M1090,70h-50V0H930.2l-50.5,70H790l-30,30V70h-70V0H470v70H160.5L110,0H0v240l140,140h140v-40l40,40h270v-40
		l40,40h130v-40l40,40h250l90-90V120L1090,70z M170,170L170,170l-70,0v20h70v80v0H60l-40-40v0V20h80v70h70V170z M470,270L470,270
		l-240,0l-40-40v0V90h80v100h20V90h80v100h20V90h80V270z M570,270h-80V90h80V270z M570,70h-80V20h80V70z M740,170L740,170l-70,0v20
		h70v80v0H630l-40-40v0V20h80v70h70V170z M920,170L920,170l-80,0v20h80v80v0H800l-40-40v0V130v0l40-40h120V170z M1120,130v140v0h-80
		v0V170h-20v100v0h-80v0V20h80v70h60L1120,130L1120,130z"/>
	<polygon class="st0" points="20,230 20,230 60,270 170,270 170,270 60,270 	"/>
	<rect x="100" y="170" class="st0" width="70" height="0"/>
	<polygon class="st0" points="190,230 190,230 230,270 470,270 470,270 230,270 	"/>
	<rect x="670" y="170" class="st0" width="70" height="0"/>
	<polygon class="st0" points="590,230 590,230 630,270 740,270 740,270 630,270 	"/>
	<rect x="840" y="170" class="st0" width="80" height="0"/>
	<polygon class="st0" points="760,230 760,230 800,270 920,270 920,270 800,270 	"/>
	<rect x="1020" y="170" class="st0" width="20" height="0"/>
	<rect x="940" y="270" class="st0" width="80" height="0"/>
	<rect x="1040" y="270" class="st0" width="80" height="0"/>
</g>
</svg>
